<?xml version="1.0" encoding="UTF-8" standalone="no"?>
<!-- Created with Inkscape (http://www.inkscape.org/) -->

<svg
   version="1.1"
   id="svg2"
   width="69.667557"
   height="318.12256"
   viewBox="0 0 69.667556 318.12254"
   sodipodi:docname="13.1Ð.svg"
   inkscape:version="1.2.2 (b0a8486541, 2022-12-01)"
   xmlns:inkscape="http://www.inkscape.org/namespaces/inkscape"
   xmlns:sodipodi="http://sodipodi.sourceforge.net/DTD/sodipodi-0.dtd"
   xmlns="http://www.w3.org/2000/svg"
   xmlns:svg="http://www.w3.org/2000/svg">
  <defs
     id="defs6">
    <clipPath
       clipPathUnits="userSpaceOnUse"
       id="clipPath20">
      <path
         d="M 1230,1270 H 4720 V 7150 H 1230 Z"
         id="path18" />
    </clipPath>
    <clipPath
       clipPathUnits="userSpaceOnUse"
       id="clipPath150">
      <path
         d="m 1675.87,5869.59 h 2572.67 v 615.02 H 1675.87 Z"
         id="path148" />
    </clipPath>
    <clipPath
       clipPathUnits="userSpaceOnUse"
       id="clipPath164">
      <path
         d="M 1230,1270 H 4720 V 7150 H 1230 Z"
         id="path162" />
    </clipPath>
    <clipPath
       clipPathUnits="userSpaceOnUse"
       id="clipPath212">
      <path
         d="m 1675.87,5869.59 h 2572.67 v 615.02 H 1675.87 Z"
         id="path210" />
    </clipPath>
    <clipPath
       clipPathUnits="userSpaceOnUse"
       id="clipPath222">
      <path
         d="M 1230,1270 H 4720 V 7150 H 1230 Z"
         id="path220" />
    </clipPath>
  </defs>
  <sodipodi:namedview
     id="namedview4"
     pagecolor="#ffffff"
     bordercolor="#000000"
     borderopacity="0.25"
     inkscape:showpageshadow="2"
     inkscape:pageopacity="1"
     inkscape:pagecheckerboard="0"
     inkscape:deskcolor="#d1d1d1"
     showgrid="false"
     inkscape:zoom="2.6472681"
     inkscape:cx="137.50024"
     inkscape:cy="218.90491"
     inkscape:window-width="1781"
     inkscape:window-height="928"
     inkscape:window-x="115"
     inkscape:window-y="13"
     inkscape:window-maximized="0"
     inkscape:current-layer="g10">
    <inkscape:page
       x="0"
       y="0"
       id="page8"
       width="69.667557"
       height="318.12253" />
  </sodipodi:namedview>
  <g
     id="g10"
     inkscape:groupmode="layer"
     inkscape:label="Page 1"
     transform="matrix(1.3333333,0,0,-1.3333333,-222.12711,846.8506)">
    <g
       id="g12"
       transform="scale(0.1)">
      <g
         id="g216">
        <g
           id="g218"
           clip-path="url(#clipPath222)">
          <g
             id="g503"
             transform="translate(-2085,-1935)">
            <path
               d="m 3873.59,6186 c -0.3,0 -0.6,0 -0.9,-0.01 -9.18,-0.29 -16.25,-8.13 -15.76,-13.64 4.16,-47.33 12.87,-89.31 12.89,-93.64 0,-12.49 15.56,-17.28 20.32,-18.45 5.34,-1.35 10.78,1.95 12.1,7.32 1.32,5.36 -1.96,10.77 -7.32,12.09 -1.73,0.44 -3.83,1.24 -5.19,1.94 -0.72,18.29 1.48,80.54 0.49,91.79 -0.47,5.33 -7.83,12.6 -16.63,12.6"
               style="fill:#ffffff;fill-opacity:1;fill-rule:nonzero;stroke:none"
               id="path46" />
            <path
               d="m 3873.59,6186 c -0.3,0 -0.6,0 -0.9,-0.01 -9.18,-0.29 -16.25,-8.13 -15.76,-13.64 4.16,-47.33 12.87,-89.31 12.89,-93.64 0,-12.49 15.56,-17.28 20.32,-18.45 5.34,-1.35 10.78,1.95 12.1,7.32 1.32,5.36 -1.96,10.77 -7.32,12.09 -1.73,0.44 -3.83,1.24 -5.19,1.94 -0.72,18.29 1.48,80.54 0.49,91.79 -0.47,5.33 -7.83,12.6 -16.63,12.6 z"
               style="fill:none;stroke:#000000;stroke-width:5;stroke-linecap:round;stroke-linejoin:round;stroke-miterlimit:10;stroke-dasharray:none;stroke-opacity:1"
               id="path48" />
            <path
               d="m 3868.22,6273.44 -0.11,-0.14 c -25.23,16.38 -62.91,9.88 -88.87,-16.96 -28.79,-29.77 -32.16,-73.22 -7.53,-97.04 3.14,-3.04 6.6,-5.6 10.28,-7.7 l -0.02,-0.03 90.61,-58.33 86.25,121.87 -90.61,58.33"
               style="fill:#ffffff;fill-opacity:1;fill-rule:nonzero;stroke:none"
               id="path100" />
            <path
               d="m 3868.22,6273.44 -0.11,-0.14 c -25.23,16.38 -62.91,9.88 -88.87,-16.96 -28.79,-29.77 -32.16,-73.22 -7.53,-97.04 3.14,-3.04 6.6,-5.6 10.28,-7.7 l -0.02,-0.03 90.61,-58.33 86.25,121.87 z"
               style="fill:none;stroke:#000000;stroke-width:5;stroke-linecap:round;stroke-linejoin:round;stroke-miterlimit:10;stroke-dasharray:none;stroke-opacity:1"
               id="path102" />
            <path
               d="m 3959.05,6111.77 c -28.79,-29.78 -72.09,-34.61 -96.72,-10.8 -24.64,23.82 -21.27,67.27 7.53,97.04 28.8,29.79 72.1,34.61 96.73,10.8 24.63,-23.82 21.26,-67.25 -7.54,-97.04"
               style="fill:#ffffff;fill-opacity:1;fill-rule:nonzero;stroke:none"
               id="path104" />
            <path
               d="m 3959.05,6111.77 c -28.79,-29.78 -72.09,-34.61 -96.72,-10.8 -24.64,23.82 -21.27,67.27 7.53,97.04 28.8,29.79 72.1,34.61 96.73,10.8 24.63,-23.82 21.26,-67.25 -7.54,-97.04 z"
               style="fill:none;stroke:#000000;stroke-width:5;stroke-linecap:round;stroke-linejoin:round;stroke-miterlimit:10;stroke-dasharray:none;stroke-opacity:1"
               id="path106" />
            <path
               d="m 3914.46,6154.9 78.34,-51.25"
               style="fill:none;stroke:#000000;stroke-width:7.5;stroke-linecap:round;stroke-linejoin:round;stroke-miterlimit:10;stroke-dasharray:none;stroke-opacity:1"
               id="path108" />
            <path
               d="m 4077.35,6138.45 -0.1,-0.15 c -25.23,16.39 -62.92,9.89 -88.87,-16.95 -28.78,-29.77 -32.16,-73.22 -7.53,-97.04 3.14,-3.04 6.6,-5.59 10.27,-7.7 l -0.02,-0.03 90.61,-58.33 86.25,121.87 -90.61,58.33"
               style="fill:#ffffff;fill-opacity:1;fill-rule:nonzero;stroke:none"
               id="path110" />
            <path
               d="m 4077.35,6138.45 -0.1,-0.15 c -25.23,16.39 -62.92,9.89 -88.87,-16.95 -28.78,-29.77 -32.16,-73.22 -7.53,-97.04 3.14,-3.04 6.6,-5.59 10.27,-7.7 l -0.02,-0.03 90.61,-58.33 86.25,121.87 z"
               style="fill:none;stroke:#000000;stroke-width:5;stroke-linecap:round;stroke-linejoin:round;stroke-miterlimit:10;stroke-dasharray:none;stroke-opacity:1"
               id="path112" />
            <path
               d="m 4168.19,5976.78 c -28.79,-29.78 -72.09,-34.61 -96.72,-10.8 -24.65,23.82 -21.27,67.27 7.52,97.04 28.81,29.79 72.11,34.61 96.74,10.8 24.63,-23.82 21.25,-67.25 -7.54,-97.04"
               style="fill:#ffffff;fill-opacity:1;fill-rule:nonzero;stroke:none"
               id="path114" />
            <path
               d="m 4168.19,5976.78 c -28.79,-29.78 -72.09,-34.61 -96.72,-10.8 -24.65,23.82 -21.27,67.27 7.52,97.04 28.81,29.79 72.11,34.61 96.74,10.8 24.63,-23.82 21.25,-67.25 -7.54,-97.04 z"
               style="fill:none;stroke:#000000;stroke-width:5;stroke-linecap:round;stroke-linejoin:round;stroke-miterlimit:10;stroke-dasharray:none;stroke-opacity:1"
               id="path116" />
            <path
               d="m 4145.53,6042.28 c -0.3,0 -0.59,0 -0.9,-0.01 -9.18,-0.29 -16.25,-8.13 -15.76,-13.64 4.16,-47.33 12.87,-89.31 12.89,-93.65 0,-12.48 15.56,-17.27 20.33,-18.44 5.34,-1.35 10.78,1.95 12.1,7.32 1.31,5.36 -1.97,10.77 -7.33,12.09 -1.74,0.44 -3.83,1.24 -5.18,1.94 -0.74,18.29 1.47,80.54 0.48,91.79 -0.46,5.33 -7.83,12.6 -16.63,12.6"
               style="fill:#ffffff;fill-opacity:1;fill-rule:nonzero;stroke:none"
               id="path118" />
            <path
               d="m 4145.53,6042.28 c -0.3,0 -0.59,0 -0.9,-0.01 -9.18,-0.29 -16.25,-8.13 -15.76,-13.64 4.16,-47.33 12.87,-89.31 12.89,-93.65 0,-12.48 15.56,-17.27 20.33,-18.44 5.34,-1.35 10.78,1.95 12.1,7.32 1.31,5.36 -1.97,10.77 -7.33,12.09 -1.74,0.44 -3.83,1.24 -5.18,1.94 -0.74,18.29 1.47,80.54 0.48,91.79 -0.46,5.33 -7.83,12.6 -16.63,12.6 z"
               style="fill:none;stroke:#000000;stroke-width:5;stroke-linecap:round;stroke-linejoin:round;stroke-miterlimit:10;stroke-dasharray:none;stroke-opacity:1"
               id="path120" />
            <path
               d="m 4200.74,5976.78 c -20.72,-34.66 -62.35,-50.28 -92.95,-34.88 -30.6,15.4 -38.61,55.96 -17.88,90.62 20.72,34.67 62.33,50.29 92.94,34.9 30.6,-15.39 38.6,-55.96 17.89,-90.64"
               style="fill:#ffffff;fill-opacity:1;fill-rule:nonzero;stroke:none"
               id="path122" />
            <path
               d="m 4200.74,5976.78 c -20.72,-34.66 -62.35,-50.28 -92.95,-34.88 -30.6,15.4 -38.61,55.96 -17.88,90.62 20.72,34.67 62.33,50.29 92.94,34.9 30.6,-15.39 38.6,-55.96 17.89,-90.64 z"
               style="fill:none;stroke:#000000;stroke-width:5;stroke-linecap:round;stroke-linejoin:round;stroke-miterlimit:10;stroke-dasharray:none;stroke-opacity:1"
               id="path124" />
            <path
               d="m 4130.32,6061.22 -31.35,24.66 1.19,-49.02"
               style="fill:#ffffff;fill-opacity:1;fill-rule:nonzero;stroke:none"
               id="path126" />
            <path
               d="m 4130.32,6061.22 -31.35,24.66 1.19,-49.02"
               style="fill:none;stroke:#000000;stroke-width:5;stroke-linecap:round;stroke-linejoin:round;stroke-miterlimit:10;stroke-dasharray:none;stroke-opacity:1"
               id="path128" />
            <path
               d="m 4171.67,6061.28 34.94,24.68 -8.26,-48.98"
               style="fill:#ffffff;fill-opacity:1;fill-rule:nonzero;stroke:none"
               id="path130" />
            <path
               d="m 4171.67,6061.28 34.94,24.68 -8.26,-48.98"
               style="fill:none;stroke:#000000;stroke-width:5;stroke-linecap:round;stroke-linejoin:round;stroke-miterlimit:10;stroke-dasharray:none;stroke-opacity:1"
               id="path132" />
            <path
               d="m 4138.64,6014.13 c 0,-1.8 -6.43,-5.5 -13.09,-5.51 -6.65,0 -11.01,3.93 -11.01,5.49 0,1.64 6.42,5.47 13.05,5.48 6.68,0 11.05,-4.08 11.05,-5.46"
               style="fill:#000000;fill-opacity:1;fill-rule:nonzero;stroke:none"
               id="path134" />
            <path
               d="m 4138.64,6014.13 c 0,-1.8 -6.43,-5.5 -13.09,-5.51 -6.65,0 -11.01,3.93 -11.01,5.49 0,1.64 6.42,5.47 13.05,5.48 6.68,0 11.05,-4.08 11.05,-5.46 z"
               style="fill:none;stroke:#000000;stroke-width:5;stroke-linecap:round;stroke-linejoin:round;stroke-miterlimit:10;stroke-dasharray:none;stroke-opacity:1"
               id="path136" />
            <path
               d="m 4187.12,6014.18 c 0,-1.61 -6.45,-5.48 -13.11,-5.49 -6.62,-0.01 -11.02,4.57 -11.02,5.46 0,1.61 6.42,5.5 13.08,5.5 6.63,0.01 11.05,-3.89 11.05,-5.47"
               style="fill:#000000;fill-opacity:1;fill-rule:nonzero;stroke:none"
               id="path138" />
            <path
               d="m 4187.12,6014.18 c 0,-1.61 -6.45,-5.48 -13.11,-5.49 -6.62,-0.01 -11.02,4.57 -11.02,5.46 0,1.61 6.42,5.5 13.08,5.5 6.63,0.01 11.05,-3.89 11.05,-5.47 z"
               style="fill:none;stroke:#000000;stroke-width:5;stroke-linecap:round;stroke-linejoin:round;stroke-miterlimit:10;stroke-dasharray:none;stroke-opacity:1"
               id="path140" />
            <path
               d="m 4180.88,5981.66 c 0,0 -9.37,-15.93 -28.75,-20.62 -19.37,-4.69 -34.37,15.94 -34.37,15.94 0,0 19.37,-4.07 32.5,-3.44 14.05,0.67 30.62,8.12 30.62,8.12"
               style="fill:#000000;fill-opacity:1;fill-rule:nonzero;stroke:none"
               id="path142" />
            <path
               d="m 4180.88,5981.66 c 0,0 -9.37,-15.93 -28.75,-20.62 -19.37,-4.69 -34.37,15.94 -34.37,15.94 0,0 19.37,-4.07 32.5,-3.44 14.05,0.67 30.62,8.12 30.62,8.12 z m -77.31,-12.68 c 0,0 -28.63,-1.74 -57.29,10.25 m 55.94,-3.24 c 0,0 -29,2.1 -56.65,17.69 m 55.2,-10.11 c 0,0 -28.99,6.46 -54.99,25.82 m 146,-33.17 c 0,0 28.46,-0.31 54.26,13.24 m -54.29,-6.11 c 0,0 28.06,3.59 52.16,20.71 m -52.2,-12.99 c 0,0 27.18,7.98 48.98,28.85"
               style="fill:none;stroke:#000000;stroke-width:5;stroke-linecap:round;stroke-linejoin:round;stroke-miterlimit:10;stroke-dasharray:none;stroke-opacity:1"
               id="path152" />
            <path
               d="m 3822.37,6057.25 c -1.33,-5.37 -6.76,-8.67 -12.11,-7.32 -4.77,1.17 -20.31,5.96 -20.31,18.44 0,0.44 0.06,1.6 0.13,3.13 -0.45,0.36 -0.64,0.67 -0.33,0.88 -0.94,18.27 -10.78,79.97 -11.52,91.24 -1.13,16.73 32.56,0.55 32.22,-9.52 -1.6,-47.49 -0.97,-78.5 -0.6,-82.82 1.37,-0.7 3.46,-1.5 5.19,-1.94 5.36,-1.32 8.64,-6.73 7.33,-12.09"
               style="fill:#ffffff;fill-opacity:1;fill-rule:nonzero;stroke:none"
               id="path256" />
            <path
               d="m 3822.37,6057.25 c -1.33,-5.37 -6.76,-8.67 -12.11,-7.32 -4.77,1.17 -20.31,5.96 -20.31,18.44 0,0.44 0.06,1.6 0.13,3.13 -0.45,0.36 -0.64,0.67 -0.33,0.88 -0.94,18.27 -10.78,79.97 -11.52,91.24 -1.13,16.73 32.56,0.55 32.22,-9.52 -1.6,-47.49 -0.97,-78.5 -0.6,-82.82 1.37,-0.7 3.46,-1.5 5.19,-1.94 5.36,-1.32 8.64,-6.73 7.33,-12.09 z"
               style="fill:none;stroke:#000000;stroke-width:5;stroke-linecap:round;stroke-linejoin:round;stroke-miterlimit:10;stroke-dasharray:none;stroke-opacity:1"
               id="path258" />
            <path
               d="m 4057.37,5910.58 c -1.33,-5.37 -6.76,-8.67 -12.11,-7.32 -4.77,1.17 -20.31,5.96 -20.31,18.44 0,0.44 0.06,1.6 0.13,3.13 -0.45,0.36 -0.64,0.67 -0.33,0.88 -0.94,18.27 -10.78,79.97 -11.52,91.24 -1.13,16.73 32.56,0.55 32.22,-9.52 -1.6,-47.48 -0.97,-78.5 -0.6,-82.82 1.37,-0.7 3.46,-1.5 5.19,-1.94 5.36,-1.32 8.64,-6.73 7.33,-12.09"
               style="fill:#ffffff;fill-opacity:1;fill-rule:nonzero;stroke:none"
               id="path260" />
            <path
               d="m 4057.37,5910.58 c -1.33,-5.37 -6.76,-8.67 -12.11,-7.32 -4.77,1.17 -20.31,5.96 -20.31,18.44 0,0.44 0.06,1.6 0.13,3.13 -0.45,0.36 -0.64,0.67 -0.33,0.88 -0.94,18.27 -10.78,79.97 -11.52,91.24 -1.13,16.73 32.56,0.55 32.22,-9.52 -1.6,-47.48 -0.97,-78.5 -0.6,-82.82 1.37,-0.7 3.46,-1.5 5.19,-1.94 5.36,-1.32 8.64,-6.73 7.33,-12.09 z"
               style="fill:none;stroke:#000000;stroke-width:5;stroke-linecap:round;stroke-linejoin:round;stroke-miterlimit:10;stroke-dasharray:none;stroke-opacity:1"
               id="path262" />
          </g>
          <g
             id="g493"
             transform="translate(-1530,-1485)">
            <path
               d="m 3241.75,6155.45 c -0.3,0 -0.59,0 -0.89,-0.01 -9.18,-0.29 -16.25,-8.12 -15.77,-13.64 4.16,-47.32 12.87,-89.31 12.89,-93.64 0,-12.48 15.56,-17.28 20.33,-18.45 5.34,-1.35 10.78,1.95 12.1,7.32 1.31,5.37 -1.97,10.78 -7.33,12.1 -1.73,0.43 -3.83,1.23 -5.18,1.94 -0.73,18.28 1.47,80.54 0.48,91.79 -0.46,5.33 -7.83,12.59 -16.63,12.59"
               style="fill:#ffffff;fill-opacity:1;fill-rule:nonzero;stroke:none"
               id="path28" />
            <path
               d="m 3241.75,6155.45 c -0.3,0 -0.59,0 -0.89,-0.01 -9.18,-0.29 -16.25,-8.12 -15.77,-13.64 4.16,-47.32 12.87,-89.31 12.89,-93.64 0,-12.48 15.56,-17.28 20.33,-18.45 5.34,-1.35 10.78,1.95 12.1,7.32 1.31,5.37 -1.97,10.78 -7.33,12.1 -1.73,0.43 -3.83,1.23 -5.18,1.94 -0.73,18.28 1.47,80.54 0.48,91.79 -0.46,5.33 -7.83,12.59 -16.63,12.59 z"
               style="fill:none;stroke:#000000;stroke-width:5;stroke-linecap:round;stroke-linejoin:round;stroke-miterlimit:10;stroke-dasharray:none;stroke-opacity:1"
               id="path30" />
            <path
               d="m 3337.47,6191.64 78.34,51.25 c 130.25,79.85 285.25,-52.65 184.68,-120.93 l -78.34,-51.25"
               style="fill:none;stroke:#000000;stroke-width:7.5;stroke-linecap:round;stroke-linejoin:round;stroke-miterlimit:10;stroke-dasharray:none;stroke-opacity:1"
               id="path32" />
            <path
               d="m 3313.3,6257.69 0.1,-0.15 c 25.24,16.39 62.91,9.89 88.87,-16.95 28.79,-29.78 32.17,-73.22 7.53,-97.04 -3.13,-3.04 -6.59,-5.6 -10.27,-7.71 l 0.02,-0.03 -90.62,-58.33 -86.25,121.88 90.62,58.33"
               style="fill:#ffffff;fill-opacity:1;fill-rule:nonzero;stroke:none"
               id="path34" />
            <path
               d="m 3313.3,6257.69 0.1,-0.15 c 25.24,16.39 62.91,9.89 88.87,-16.95 28.79,-29.78 32.17,-73.22 7.53,-97.04 -3.13,-3.04 -6.59,-5.6 -10.27,-7.71 l 0.02,-0.03 -90.62,-58.33 -86.25,121.88 z"
               style="fill:none;stroke:#000000;stroke-width:5;stroke-linecap:round;stroke-linejoin:round;stroke-miterlimit:10;stroke-dasharray:none;stroke-opacity:1"
               id="path36" />
            <path
               d="m 3222.47,6096.02 c 28.79,-29.79 72.09,-34.61 96.72,-10.8 24.63,23.82 21.26,67.26 -7.53,97.04 -28.8,29.79 -72.1,34.61 -96.73,10.8 -24.63,-23.82 -21.26,-67.26 7.54,-97.04"
               style="fill:#ffffff;fill-opacity:1;fill-rule:nonzero;stroke:none"
               id="path38" />
            <path
               d="m 3222.47,6096.02 c 28.79,-29.79 72.09,-34.61 96.72,-10.8 24.63,23.82 21.26,67.26 -7.53,97.04 -28.8,29.79 -72.1,34.61 -96.73,10.8 -24.63,-23.82 -21.26,-67.26 7.54,-97.04 z"
               style="fill:none;stroke:#000000;stroke-width:5;stroke-linecap:round;stroke-linejoin:round;stroke-miterlimit:10;stroke-dasharray:none;stroke-opacity:1"
               id="path40" />
            <path
               d="m 3342.44,6126.2 c 5.89,-47.14 10.81,-77.96 10.83,-82.3 0,-12.48 15.56,-17.27 20.33,-18.45 5.33,-1.34 10.78,1.96 12.09,7.33 1.33,5.36 -1.95,10.77 -7.32,12.09 -1.73,0.44 -3.83,1.24 -5.18,1.94 -0.73,18.28 0.75,80.5 0.49,91.79 -0.41,16.76 -32.49,-2.4 -31.24,-12.4"
               style="fill:#ffffff;fill-opacity:1;fill-rule:nonzero;stroke:none"
               id="path42" />
            <path
               d="m 3342.44,6126.2 c 5.89,-47.14 10.81,-77.96 10.83,-82.3 0,-12.48 15.56,-17.27 20.33,-18.45 5.33,-1.34 10.78,1.96 12.09,7.33 1.33,5.36 -1.95,10.77 -7.32,12.09 -1.73,0.44 -3.83,1.24 -5.18,1.94 -0.73,18.28 0.75,80.5 0.49,91.79 -0.41,16.76 -32.49,-2.4 -31.24,-12.4 z"
               style="fill:none;stroke:#000000;stroke-width:5;stroke-linecap:round;stroke-linejoin:round;stroke-miterlimit:10;stroke-dasharray:none;stroke-opacity:1"
               id="path44" />
            <path
               d="m 3515.1,6153.01 0.1,-0.15 c 25.24,16.39 62.92,9.89 88.87,-16.95 28.79,-29.77 32.17,-73.22 7.54,-97.04 -3.15,-3.04 -6.6,-5.59 -10.28,-7.7 l 0.02,-0.03 -90.61,-58.33 -86.25,121.87 90.61,58.33"
               style="fill:#ffffff;fill-opacity:1;fill-rule:nonzero;stroke:none"
               id="path272" />
            <path
               d="m 3515.1,6153.01 0.1,-0.15 c 25.24,16.39 62.92,9.89 88.87,-16.95 28.79,-29.77 32.17,-73.22 7.54,-97.04 -3.15,-3.04 -6.6,-5.59 -10.28,-7.7 l 0.02,-0.03 -90.61,-58.33 -86.25,121.87 z"
               style="fill:none;stroke:#000000;stroke-width:5;stroke-linecap:round;stroke-linejoin:round;stroke-miterlimit:10;stroke-dasharray:none;stroke-opacity:1"
               id="path274" />
            <path
               d="m 3424.26,5991.34 c 28.79,-29.78 72.09,-34.61 96.72,-10.8 24.65,23.82 21.27,67.27 -7.52,97.04 -28.81,29.79 -72.11,34.61 -96.74,10.8 -24.62,-23.82 -21.25,-67.25 7.54,-97.04"
               style="fill:#ffffff;fill-opacity:1;fill-rule:nonzero;stroke:none"
               id="path276" />
            <path
               d="m 3424.26,5991.34 c 28.79,-29.78 72.09,-34.61 96.72,-10.8 24.65,23.82 21.27,67.27 -7.52,97.04 -28.81,29.79 -72.11,34.61 -96.74,10.8 -24.62,-23.82 -21.25,-67.25 7.54,-97.04 z"
               style="fill:none;stroke:#000000;stroke-width:5;stroke-linecap:round;stroke-linejoin:round;stroke-miterlimit:10;stroke-dasharray:none;stroke-opacity:1"
               id="path278" />
            <path
               d="m 3446.95,6046.42 c 0.3,0 0.59,0 0.9,-0.01 9.18,-0.29 16.25,-8.13 15.76,-13.64 -4.16,-47.33 -12.87,-89.31 -12.89,-93.64 0,-12.49 -15.56,-17.28 -20.32,-18.45 -5.35,-1.35 -10.78,1.95 -12.1,7.32 -1.32,5.36 1.96,10.77 7.32,12.09 1.74,0.44 3.83,1.24 5.19,1.94 0.73,18.29 -1.48,80.54 -0.49,91.79 0.47,5.33 7.83,12.6 16.63,12.6"
               style="fill:#ffffff;fill-opacity:1;fill-rule:nonzero;stroke:none"
               id="path280" />
            <path
               d="m 3446.95,6046.42 c 0.3,0 0.59,0 0.9,-0.01 9.18,-0.29 16.25,-8.13 15.76,-13.64 -4.16,-47.33 -12.87,-89.31 -12.89,-93.64 0,-12.49 -15.56,-17.28 -20.32,-18.45 -5.35,-1.35 -10.78,1.95 -12.1,7.32 -1.32,5.36 1.96,10.77 7.32,12.09 1.74,0.44 3.83,1.24 5.19,1.94 0.73,18.29 -1.48,80.54 -0.49,91.79 0.47,5.33 7.83,12.6 16.63,12.6 z"
               style="fill:none;stroke:#000000;stroke-width:5;stroke-linecap:round;stroke-linejoin:round;stroke-miterlimit:10;stroke-dasharray:none;stroke-opacity:1"
               id="path282" />
            <path
               d="m 3572.18,6007.45 c -5.89,-47.14 -10.81,-77.96 -10.83,-82.3 0,-12.48 -15.56,-17.27 -20.33,-18.45 -5.33,-1.34 -10.78,1.96 -12.09,7.33 -1.33,5.36 1.95,10.77 7.33,12.09 1.72,0.44 3.82,1.24 5.17,1.94 0.73,18.28 -0.75,80.5 -0.49,91.79 0.41,16.76 32.49,-2.4 31.24,-12.4"
               style="fill:#ffffff;fill-opacity:1;fill-rule:nonzero;stroke:none"
               id="path284" />
            <path
               d="m 3572.18,6007.45 c -5.89,-47.14 -10.81,-77.96 -10.83,-82.3 0,-12.48 -15.56,-17.27 -20.33,-18.45 -5.33,-1.34 -10.78,1.96 -12.09,7.33 -1.33,5.36 1.95,10.77 7.33,12.09 1.72,0.44 3.82,1.24 5.17,1.94 0.73,18.28 -0.75,80.5 -0.49,91.79 0.41,16.76 32.49,-2.4 31.24,-12.4 z"
               style="fill:none;stroke:#000000;stroke-width:5;stroke-linecap:round;stroke-linejoin:round;stroke-miterlimit:10;stroke-dasharray:none;stroke-opacity:1"
               id="path286" />
            <path
               d="m 3397.54,5984.67 c 20.73,-34.66 62.35,-50.28 92.95,-34.88 30.6,15.4 38.62,55.97 17.88,90.62 -20.72,34.67 -62.33,50.29 -92.93,34.9 -30.61,-15.39 -38.61,-55.96 -17.9,-90.64"
               style="fill:#ffffff;fill-opacity:1;fill-rule:nonzero;stroke:none"
               id="path288" />
            <path
               d="m 3397.54,5984.67 c 20.73,-34.66 62.35,-50.28 92.95,-34.88 30.6,15.4 38.62,55.97 17.88,90.62 -20.72,34.67 -62.33,50.29 -92.93,34.9 -30.61,-15.39 -38.61,-55.96 -17.9,-90.64 z"
               style="fill:none;stroke:#000000;stroke-width:5;stroke-linecap:round;stroke-linejoin:round;stroke-miterlimit:10;stroke-dasharray:none;stroke-opacity:1"
               id="path290" />
            <path
               d="m 3440.93,6072.85 16.88,36.13 21.03,-44.3"
               style="fill:#ffffff;fill-opacity:1;fill-rule:nonzero;stroke:none"
               id="path292" />
            <path
               d="m 3440.93,6072.85 16.88,36.13 21.03,-44.3"
               style="fill:none;stroke:#000000;stroke-width:5;stroke-linecap:round;stroke-linejoin:round;stroke-miterlimit:10;stroke-dasharray:none;stroke-opacity:1"
               id="path294" />
            <path
               d="m 3403.99,6054.27 -42.3,6.31 29.42,-40.02"
               style="fill:#ffffff;fill-opacity:1;fill-rule:nonzero;stroke:none"
               id="path296" />
            <path
               d="m 3403.99,6054.27 -42.3,6.31 29.42,-40.02"
               style="fill:none;stroke:#000000;stroke-width:5;stroke-linecap:round;stroke-linejoin:round;stroke-miterlimit:10;stroke-dasharray:none;stroke-opacity:1"
               id="path298" />
            <path
               d="m 3466.61,6023.75 c 5.05,3.04 7.33,9.11 5.09,13.57 -2.25,4.47 -8.18,5.63 -13.24,2.61 -5.05,-3.03 -7.32,-9.1 -5.09,-13.55 2.26,-4.48 8.17,-5.65 13.24,-2.63"
               style="fill:#000000;fill-opacity:1;fill-rule:nonzero;stroke:none"
               id="path300" />
            <path
               d="m 3466.61,6023.75 c 5.05,3.04 7.33,9.11 5.09,13.57 -2.25,4.47 -8.18,5.63 -13.24,2.61 -5.05,-3.03 -7.32,-9.1 -5.09,-13.55 2.26,-4.48 8.17,-5.65 13.24,-2.63 z"
               style="fill:none;stroke:#000000;stroke-width:5;stroke-linecap:round;stroke-linejoin:round;stroke-miterlimit:10;stroke-dasharray:none;stroke-opacity:1"
               id="path302" />
            <path
               d="m 3423.32,6001.97 c 5.04,3.03 7.32,9.11 5.07,13.58 -2.22,4.45 -8.16,5.62 -13.22,2.59 -5.06,-3.02 -7.32,-9.09 -5.08,-13.56 2.25,-4.45 8.17,-5.63 13.23,-2.61"
               style="fill:#000000;fill-opacity:1;fill-rule:nonzero;stroke:none"
               id="path304" />
            <path
               d="m 3423.32,6001.97 c 5.04,3.03 7.32,9.11 5.07,13.58 -2.22,4.45 -8.16,5.62 -13.22,2.59 -5.06,-3.02 -7.32,-9.09 -5.08,-13.56 2.25,-4.45 8.17,-5.63 13.23,-2.61 z"
               style="fill:none;stroke:#000000;stroke-width:5;stroke-linecap:round;stroke-linejoin:round;stroke-miterlimit:10;stroke-dasharray:none;stroke-opacity:1"
               id="path306" />
            <path
               d="m 3447.55,5970.41 c 0,0 13.15,-3.24 25,4.17 10,6.25 14.59,18.75 14.59,18.75"
               style="fill:#ffffff;fill-opacity:1;fill-rule:nonzero;stroke:none"
               id="path308" />
            <path
               d="m 3447.55,5970.41 c 0,0 13.15,-3.24 25,4.17 10,6.25 14.59,18.75 14.59,18.75 m -0.76,21.25 c 0,0 26.31,11.43 57.34,9.97 m -53.68,-16.09 c 0,0 27.97,7.94 59.28,2.76 m -55.32,-9.39 c 0,0 29.44,3.85 60.53,-5.45 m -121.41,-8.58 c 0,0 -24.64,-14.2 -39.99,-38.98 m 43.65,32.84 c 0,0 -22.34,-17.36 -34.39,-44.34 m 38.36,37.72 c 0,0 -19.36,-20.69 -27.52,-49.73"
               style="fill:none;stroke:#000000;stroke-width:5;stroke-linecap:round;stroke-linejoin:round;stroke-miterlimit:10;stroke-dasharray:none;stroke-opacity:1"
               id="path310" />
            <path
               d="m 3335.96,6278.74 c 24.07,33.25 52.5,48.02 101.16,41.2"
               style="fill:none;stroke:#000000;stroke-width:10;stroke-linecap:round;stroke-linejoin:round;stroke-miterlimit:4;stroke-dasharray:none;stroke-opacity:1"
               id="path312" />
            <path
               d="m 3393.05,6303.64 -1.45,6.85 44.85,9.54 -40.5,21.52 3.29,6.17 57.47,-30.53 -63.66,-13.55"
               style="fill:#000000;fill-opacity:1;fill-rule:nonzero;stroke:none"
               id="path314" />
            <path
               d="m 3636.32,6067.03 c 38.03,15.4 59.2,39.48 64.22,88.35"
               style="fill:none;stroke:#000000;stroke-width:10;stroke-linecap:round;stroke-linejoin:round;stroke-miterlimit:4;stroke-dasharray:none;stroke-opacity:1"
               id="path316" />
            <path
               d="m 3718.46,6111.95 -6.79,-1.71 -11.2,44.47 -20,-41.26 -6.29,3.05 28.38,58.56 15.9,-63.11"
               style="fill:#000000;fill-opacity:1;fill-rule:nonzero;stroke:none"
               id="path318" />
          </g>
          <g
             id="g451"
             transform="translate(-1020,-990)">
            <path
               d="m 2961.83,6033.86 c -47.14,-5.89 -77.96,-10.81 -82.29,-10.83 -12.48,0 -17.28,-15.56 -18.45,-20.33 -1.35,-5.33 1.95,-10.78 7.32,-12.09 5.37,-1.33 10.78,1.95 12.09,7.32 0.44,1.73 1.24,3.83 1.95,5.18 18.28,0.73 80.5,-0.75 91.78,-0.49 16.77,0.41 -2.4,32.49 -12.4,31.24"
               style="fill:#ffffff;fill-opacity:1;fill-rule:nonzero;stroke:none"
               id="path50" />
            <path
               d="m 2961.83,6033.86 c -47.14,-5.89 -77.96,-10.81 -82.29,-10.83 -12.48,0 -17.28,-15.56 -18.45,-20.33 -1.35,-5.33 1.95,-10.78 7.32,-12.09 5.37,-1.33 10.78,1.95 12.09,7.32 0.44,1.73 1.24,3.83 1.95,5.18 18.28,0.73 80.5,-0.75 91.78,-0.49 16.77,0.41 -2.4,32.49 -12.4,31.24 z"
               style="fill:none;stroke:#000000;stroke-width:5;stroke-linecap:round;stroke-linejoin:round;stroke-miterlimit:10;stroke-dasharray:none;stroke-opacity:1"
               id="path52" />
            <path
               d="m 2848.09,6191.64 78.34,51.25 c 130.26,79.85 285.26,-52.65 184.69,-120.93 l -78.34,-51.25"
               style="fill:none;stroke:#000000;stroke-width:7.5;stroke-linecap:round;stroke-linejoin:round;stroke-miterlimit:10;stroke-dasharray:none;stroke-opacity:1"
               id="path54" />
            <path
               d="m 2823.92,6257.69 0.11,-0.15 c 25.23,16.39 62.91,9.89 88.87,-16.95 28.79,-29.78 32.16,-73.22 7.53,-97.04 -3.14,-3.04 -6.6,-5.6 -10.28,-7.71 l 0.02,-0.03 -90.61,-58.33 -86.25,121.88 90.61,58.33"
               style="fill:#ffffff;fill-opacity:1;fill-rule:nonzero;stroke:none"
               id="path56" />
            <path
               d="m 2823.92,6257.69 0.11,-0.15 c 25.23,16.39 62.91,9.89 88.87,-16.95 28.79,-29.78 32.16,-73.22 7.53,-97.04 -3.14,-3.04 -6.6,-5.6 -10.28,-7.71 l 0.02,-0.03 -90.61,-58.33 -86.25,121.88 z"
               style="fill:none;stroke:#000000;stroke-width:5;stroke-linecap:round;stroke-linejoin:round;stroke-miterlimit:10;stroke-dasharray:none;stroke-opacity:1"
               id="path58" />
            <path
               d="m 2967.34,6136.31 c 5.27,-1.68 8.2,-7.31 6.5,-12.57 -1.48,-4.67 -7.28,-19.87 -19.74,-19.04 -0.45,0.03 -1.59,0.17 -3.11,0.35 -0.39,-0.42 -0.72,-0.6 -0.9,-0.27 -18.3,0.27 -80.45,-3.49 -91.74,-3.49 -16.77,-0.02 1.61,32.54 11.63,31.53 47.28,-4.73 78.2,-8.16 82.54,-8.07 0.78,1.32 1.72,3.35 2.28,5.06 1.66,5.25 7.28,8.16 12.54,6.5"
               style="fill:#ffffff;fill-opacity:1;fill-rule:nonzero;stroke:none"
               id="path60" />
            <path
               d="m 2967.34,6136.31 c 5.27,-1.68 8.2,-7.31 6.5,-12.57 -1.48,-4.67 -7.28,-19.87 -19.74,-19.04 -0.45,0.03 -1.59,0.17 -3.11,0.35 -0.39,-0.42 -0.72,-0.6 -0.9,-0.27 -18.3,0.27 -80.45,-3.49 -91.74,-3.49 -16.77,-0.02 1.61,32.54 11.63,31.53 47.28,-4.73 78.2,-8.16 82.54,-8.07 0.78,1.32 1.72,3.35 2.28,5.06 1.66,5.25 7.28,8.16 12.54,6.5 z"
               style="fill:none;stroke:#000000;stroke-width:5;stroke-linecap:round;stroke-linejoin:round;stroke-miterlimit:10;stroke-dasharray:none;stroke-opacity:1"
               id="path62" />
            <path
               d="m 2733.09,6096.02 c 28.79,-29.79 72.09,-34.61 96.72,-10.8 24.64,23.82 21.27,67.26 -7.53,97.04 -28.8,29.79 -72.1,34.61 -96.73,10.8 -24.63,-23.82 -21.26,-67.26 7.54,-97.04"
               style="fill:#ffffff;fill-opacity:1;fill-rule:nonzero;stroke:none"
               id="path64" />
            <path
               d="m 2733.09,6096.02 c 28.79,-29.79 72.09,-34.61 96.72,-10.8 24.64,23.82 21.27,67.26 -7.53,97.04 -28.8,29.79 -72.1,34.61 -96.73,10.8 -24.63,-23.82 -21.26,-67.26 7.54,-97.04 z"
               style="fill:none;stroke:#000000;stroke-width:5;stroke-linecap:round;stroke-linejoin:round;stroke-miterlimit:10;stroke-dasharray:none;stroke-opacity:1"
               id="path66" />
            <path
               d="m 2815.28,6207.55 c -0.02,-0.3 -0.04,-0.59 -0.04,-0.9 -0.31,-9.18 7.03,-16.74 12.56,-16.62 47.5,1.02 89.9,4.94 94.23,4.68 12.45,-0.83 18.27,14.38 19.75,19.05 1.69,5.25 -1.24,10.89 -6.51,12.56 -5.26,1.67 -10.87,-1.25 -12.55,-6.51 -0.55,-1.69 -1.49,-3.73 -2.28,-5.04 -18.29,0.5 -80.2,8.79 -91.49,8.54 -5.35,-0.11 -13.08,-6.98 -13.67,-15.76"
               style="fill:#ffffff;fill-opacity:1;fill-rule:nonzero;stroke:none"
               id="path68" />
            <path
               d="m 2815.28,6207.55 c -0.02,-0.3 -0.04,-0.59 -0.04,-0.9 -0.31,-9.18 7.03,-16.74 12.56,-16.62 47.5,1.02 89.9,4.94 94.23,4.68 12.45,-0.83 18.27,14.38 19.75,19.05 1.69,5.25 -1.24,10.89 -6.51,12.56 -5.26,1.67 -10.87,-1.25 -12.55,-6.51 -0.55,-1.69 -1.49,-3.73 -2.28,-5.04 -18.29,0.5 -80.2,8.79 -91.49,8.54 -5.35,-0.11 -13.08,-6.98 -13.67,-15.76 z"
               style="fill:none;stroke:#000000;stroke-width:5;stroke-linecap:round;stroke-linejoin:round;stroke-miterlimit:10;stroke-dasharray:none;stroke-opacity:1"
               id="path70" />
            <path
               d="m 3044.48,6145.51 0.1,-0.15 c 25.23,16.39 62.92,9.89 88.86,-16.95 28.79,-29.77 32.17,-73.22 7.54,-97.04 -3.14,-3.04 -6.6,-5.59 -10.27,-7.7 l 0.02,-0.03 -90.62,-58.33 -86.25,121.87 90.62,58.33"
               style="fill:#ffffff;fill-opacity:1;fill-rule:nonzero;stroke:none"
               id="path328" />
            <path
               d="m 3044.48,6145.51 0.1,-0.15 c 25.23,16.39 62.92,9.89 88.86,-16.95 28.79,-29.77 32.17,-73.22 7.54,-97.04 -3.14,-3.04 -6.6,-5.59 -10.27,-7.7 l 0.02,-0.03 -90.62,-58.33 -86.25,121.87 z"
               style="fill:none;stroke:#000000;stroke-width:5;stroke-linecap:round;stroke-linejoin:round;stroke-miterlimit:10;stroke-dasharray:none;stroke-opacity:1"
               id="path330" />
            <path
               d="m 2953.64,5983.84 c 28.79,-29.78 72.09,-34.61 96.72,-10.8 24.65,23.82 21.27,67.27 -7.52,97.04 -28.81,29.79 -72.11,34.61 -96.74,10.8 -24.63,-23.82 -21.25,-67.25 7.54,-97.04"
               style="fill:#ffffff;fill-opacity:1;fill-rule:nonzero;stroke:none"
               id="path332" />
            <path
               d="m 2953.64,5983.84 c 28.79,-29.78 72.09,-34.61 96.72,-10.8 24.65,23.82 21.27,67.27 -7.52,97.04 -28.81,29.79 -72.11,34.61 -96.74,10.8 -24.63,-23.82 -21.25,-67.25 7.54,-97.04 z"
               style="fill:none;stroke:#000000;stroke-width:5;stroke-linecap:round;stroke-linejoin:round;stroke-miterlimit:10;stroke-dasharray:none;stroke-opacity:1"
               id="path334" />
            <path
               d="m 3027.76,6035.41 c -20.72,34.66 -62.34,50.29 -92.95,34.89 -30.6,-15.4 -38.61,-55.97 -17.88,-90.63 20.72,-34.67 62.33,-50.28 92.94,-34.89 30.6,15.39 38.6,55.96 17.89,90.63"
               style="fill:#ffffff;fill-opacity:1;fill-rule:nonzero;stroke:none"
               id="path336" />
            <path
               d="m 3027.76,6035.41 c -20.72,34.66 -62.34,50.29 -92.95,34.89 -30.6,-15.4 -38.61,-55.97 -17.88,-90.63 20.72,-34.67 62.33,-50.28 92.94,-34.89 30.6,15.39 38.6,55.96 17.89,90.63 z"
               style="fill:none;stroke:#000000;stroke-width:5;stroke-linecap:round;stroke-linejoin:round;stroke-miterlimit:10;stroke-dasharray:none;stroke-opacity:1"
               id="path338" />
            <path
               d="m 3022.43,5968.22 15.56,-36.72 -46.99,14"
               style="fill:#ffffff;fill-opacity:1;fill-rule:nonzero;stroke:none"
               id="path340" />
            <path
               d="m 3022.43,5968.22 15.56,-36.72 -46.99,14"
               style="fill:none;stroke:#000000;stroke-width:5;stroke-linecap:round;stroke-linejoin:round;stroke-miterlimit:10;stroke-dasharray:none;stroke-opacity:1"
               id="path342" />
            <path
               d="m 3033.34,6008.1 32.99,27.22 -49.42,4.92"
               style="fill:#ffffff;fill-opacity:1;fill-rule:nonzero;stroke:none"
               id="path344" />
            <path
               d="m 3033.34,6008.1 32.99,27.22 -49.42,4.92"
               style="fill:none;stroke:#000000;stroke-width:5;stroke-linecap:round;stroke-linejoin:round;stroke-miterlimit:10;stroke-dasharray:none;stroke-opacity:1"
               id="path346" />
            <path
               d="m 2983.41,5985.4 c -5.02,3.11 -11.46,2.37 -14.4,-1.68 -2.93,-4.03 -1.27,-9.83 3.73,-12.95 5.01,-3.12 11.46,-2.35 14.38,1.65 2.95,4.06 1.29,9.85 -3.71,12.98"
               style="fill:#000000;fill-opacity:1;fill-rule:nonzero;stroke:none"
               id="path348" />
            <path
               d="m 2983.41,5985.4 c -5.02,3.11 -11.46,2.37 -14.4,-1.68 -2.93,-4.03 -1.27,-9.83 3.73,-12.95 5.01,-3.12 11.46,-2.35 14.38,1.65 2.95,4.06 1.29,9.85 -3.71,12.98 z"
               style="fill:none;stroke:#000000;stroke-width:5;stroke-linecap:round;stroke-linejoin:round;stroke-miterlimit:10;stroke-dasharray:none;stroke-opacity:1"
               id="path350" />
            <path
               d="m 2996.2,6032.14 c -5,3.11 -11.46,2.36 -14.4,-1.68 -2.95,-4.02 -1.29,-9.82 3.73,-12.95 5.01,-3.12 11.44,-2.36 14.38,1.68 2.95,4.04 1.28,9.85 -3.71,12.95"
               style="fill:#000000;fill-opacity:1;fill-rule:nonzero;stroke:none"
               id="path352" />
            <path
               d="m 2996.2,6032.14 c -5,3.11 -11.46,2.36 -14.4,-1.68 -2.95,-4.02 -1.29,-9.82 3.73,-12.95 5.01,-3.12 11.44,-2.36 14.38,1.68 2.95,4.04 1.28,9.85 -3.71,12.95 z"
               style="fill:none;stroke:#000000;stroke-width:5;stroke-linecap:round;stroke-linejoin:round;stroke-miterlimit:10;stroke-dasharray:none;stroke-opacity:1"
               id="path354" />
            <path
               d="m 2931.51,6032.91 c 0,0 -3.18,-9.49 -4.79,-15.41 -1.6,-5.8 0.41,-21.46 0.41,-21.46"
               style="fill:#ffffff;fill-opacity:1;fill-rule:nonzero;stroke:none"
               id="path356" />
            <path
               d="m 2931.51,6032.91 c 0,0 -3.18,-9.49 -4.79,-15.41 -1.6,-5.8 0.41,-21.46 0.41,-21.46 m 21.59,-13.44 c 0,0 -9.11,-27.2 -30.95,-49.29 m 23.95,50.66 c 0,0 -12.81,-26.09 -37.61,-45.9 m 30.04,47.4 c 0,0 -16.85,-24.46 -44.55,-41.34 m 74.85,95.97 c 0,0 5.94,27.81 -2.2,55.8 m -4.8,-54.41 c 0,0 2.04,28.22 -9.94,55.21 m 2.35,-53.73 c 0,0 -2.41,28.23 -18.54,53.72"
               style="fill:none;stroke:#000000;stroke-width:5;stroke-linecap:round;stroke-linejoin:round;stroke-miterlimit:10;stroke-dasharray:none;stroke-opacity:1"
               id="path358" />
            <path
               d="m 2907.3,6114.14 c -4.79,2.78 -6.45,8.9 -3.68,13.68 2.45,4.25 11.37,17.86 23.36,14.4 0.42,-0.12 1.52,-0.5 2.96,-1 0.48,0.33 0.83,0.44 0.93,0.06 17.82,-4.15 79.83,-11.79 90.87,-14.19 16.39,-3.54 -8.48,-31.45 -18.07,-28.33 -45.19,14.69 -75.17,22.7 -79.42,23.53 -1.04,-1.12 -2.39,-2.9 -3.3,-4.45 -2.74,-4.78 -8.86,-6.43 -13.65,-3.7"
               style="fill:#ffffff;fill-opacity:1;fill-rule:nonzero;stroke:none"
               id="path360" />
            <path
               d="m 2907.3,6114.14 c -4.79,2.78 -6.45,8.9 -3.68,13.68 2.45,4.25 11.37,17.86 23.36,14.4 0.42,-0.12 1.52,-0.5 2.96,-1 0.48,0.33 0.83,0.44 0.93,0.06 17.82,-4.15 79.83,-11.79 90.87,-14.19 16.39,-3.54 -8.48,-31.45 -18.07,-28.33 -45.19,14.69 -75.17,22.7 -79.42,23.53 -1.04,-1.12 -2.39,-2.9 -3.3,-4.45 -2.74,-4.78 -8.86,-6.43 -13.65,-3.7 z"
               style="fill:none;stroke:#000000;stroke-width:5;stroke-linecap:round;stroke-linejoin:round;stroke-miterlimit:10;stroke-dasharray:none;stroke-opacity:1"
               id="path362" />
          </g>
          <g
             id="g431"
             transform="translate(-495,-525)">
            <path
               d="m 2337.81,6192.27 78.34,51.25 c 144.63,79.22 299.63,-53.28 199.06,-121.56 l -78.34,-51.25"
               style="fill:none;stroke:#000000;stroke-width:7.5;stroke-linecap:round;stroke-linejoin:round;stroke-miterlimit:10;stroke-dasharray:none;stroke-opacity:1"
               id="path72" />
            <path
               d="m 2283.64,6238.94 0.11,-0.15 c 25.23,16.39 62.91,9.89 88.86,-16.95 28.79,-29.78 32.17,-73.22 7.53,-97.04 -3.13,-3.04 -6.59,-5.6 -10.27,-7.71 l 0.02,-0.03 -90.62,-58.33 -86.25,121.88 90.62,58.33"
               style="fill:#ffffff;fill-opacity:1;fill-rule:nonzero;stroke:none"
               id="path74" />
            <path
               d="m 2283.64,6238.94 0.11,-0.15 c 25.23,16.39 62.91,9.89 88.86,-16.95 28.79,-29.78 32.17,-73.22 7.53,-97.04 -3.13,-3.04 -6.59,-5.6 -10.27,-7.71 l 0.02,-0.03 -90.62,-58.33 -86.25,121.88 z"
               style="fill:none;stroke:#000000;stroke-width:5;stroke-linecap:round;stroke-linejoin:round;stroke-miterlimit:10;stroke-dasharray:none;stroke-opacity:1"
               id="path76" />
            <path
               d="m 2192.81,6077.27 c 28.79,-29.79 72.09,-34.61 96.72,-10.8 24.64,23.82 21.27,67.26 -7.53,97.04 -28.8,29.79 -72.1,34.61 -96.73,10.8 -24.63,-23.82 -21.26,-67.26 7.54,-97.04"
               style="fill:#ffffff;fill-opacity:1;fill-rule:nonzero;stroke:none"
               id="path78" />
            <path
               d="m 2192.81,6077.27 c 28.79,-29.79 72.09,-34.61 96.72,-10.8 24.64,23.82 21.27,67.26 -7.53,97.04 -28.8,29.79 -72.1,34.61 -96.73,10.8 -24.63,-23.82 -21.26,-67.26 7.54,-97.04 z"
               style="fill:none;stroke:#000000;stroke-width:5;stroke-linecap:round;stroke-linejoin:round;stroke-miterlimit:10;stroke-dasharray:none;stroke-opacity:1"
               id="path80" />
            <path
               d="m 2310.44,6155.41 c -0.31,0 -0.6,0 -0.9,0.01 -9.18,0.3 -16.25,8.13 -15.76,13.65 4.15,47.32 12.87,89.3 12.89,93.64 0,12.48 15.55,17.27 20.32,18.45 5.34,1.34 10.78,-1.96 12.1,-7.33 1.32,-5.36 -1.97,-10.77 -7.33,-12.09 -1.73,-0.44 -3.83,-1.24 -5.18,-1.94 -0.73,-18.28 1.47,-80.54 0.49,-91.79 -0.47,-5.33 -7.84,-12.6 -16.63,-12.6"
               style="fill:#ffffff;fill-opacity:1;fill-rule:nonzero;stroke:none"
               id="path82" />
            <path
               d="m 2310.44,6155.41 c -0.31,0 -0.6,0 -0.9,0.01 -9.18,0.3 -16.25,8.13 -15.76,13.65 4.15,47.32 12.87,89.3 12.89,93.64 0,12.48 15.55,17.27 20.32,18.45 5.34,1.34 10.78,-1.96 12.1,-7.33 1.32,-5.36 -1.97,-10.77 -7.33,-12.09 -1.73,-0.44 -3.83,-1.24 -5.18,-1.94 -0.73,-18.28 1.47,-80.54 0.49,-91.79 -0.47,-5.33 -7.84,-12.6 -16.63,-12.6 z"
               style="fill:none;stroke:#000000;stroke-width:5;stroke-linecap:round;stroke-linejoin:round;stroke-miterlimit:10;stroke-dasharray:none;stroke-opacity:1"
               id="path84" />
            <path
               d="m 2508.16,6140.09 0.09,-0.14 c 25.24,16.38 62.92,9.88 88.87,-16.96 28.79,-29.77 32.17,-73.22 7.54,-97.04 -3.14,-3.04 -6.6,-5.59 -10.27,-7.7 l 0.01,-0.03 -90.61,-58.33 -86.25,121.87 90.62,58.33"
               style="fill:#ffffff;fill-opacity:1;fill-rule:nonzero;stroke:none"
               id="path236" />
            <path
               d="m 2508.16,6140.09 0.09,-0.14 c 25.24,16.38 62.92,9.88 88.87,-16.96 28.79,-29.77 32.17,-73.22 7.54,-97.04 -3.14,-3.04 -6.6,-5.59 -10.27,-7.7 l 0.01,-0.03 -90.61,-58.33 -86.25,121.87 z"
               style="fill:none;stroke:#000000;stroke-width:5;stroke-linecap:round;stroke-linejoin:round;stroke-miterlimit:10;stroke-dasharray:none;stroke-opacity:1"
               id="path238" />
            <path
               d="m 2417.32,5978.42 c 28.78,-29.78 72.08,-34.61 96.71,-10.8 24.65,23.82 21.27,67.27 -7.52,97.04 -28.8,29.79 -72.1,34.61 -96.73,10.8 -24.63,-23.82 -21.25,-67.25 7.54,-97.04"
               style="fill:#ffffff;fill-opacity:1;fill-rule:nonzero;stroke:none"
               id="path240" />
            <path
               d="m 2417.32,5978.42 c 28.78,-29.78 72.08,-34.61 96.71,-10.8 24.65,23.82 21.27,67.27 -7.52,97.04 -28.8,29.79 -72.1,34.61 -96.73,10.8 -24.63,-23.82 -21.25,-67.25 7.54,-97.04 z"
               style="fill:none;stroke:#000000;stroke-width:5;stroke-linecap:round;stroke-linejoin:round;stroke-miterlimit:10;stroke-dasharray:none;stroke-opacity:1"
               id="path242" />
            <path
               d="m 2544.17,6042.8 c 0.3,0 0.6,0 0.9,0.01 9.18,0.29 16.25,8.12 15.76,13.64 -4.16,47.32 -12.87,89.31 -12.89,93.64 0,12.48 -15.56,17.28 -20.32,18.45 -5.34,1.35 -10.78,-1.95 -12.1,-7.32 -1.32,-5.37 1.96,-10.78 7.32,-12.09 1.74,-0.44 3.83,-1.25 5.19,-1.95 0.73,-18.28 -1.48,-80.54 -0.49,-91.79 0.47,-5.33 7.83,-12.59 16.63,-12.59"
               style="fill:#ffffff;fill-opacity:1;fill-rule:nonzero;stroke:none"
               id="path244" />
            <path
               d="m 2544.17,6042.8 c 0.3,0 0.6,0 0.9,0.01 9.18,0.29 16.25,8.12 15.76,13.64 -4.16,47.32 -12.87,89.31 -12.89,93.64 0,12.48 -15.56,17.28 -20.32,18.45 -5.34,1.35 -10.78,-1.95 -12.1,-7.32 -1.32,-5.37 1.96,-10.78 7.32,-12.09 1.74,-0.44 3.83,-1.25 5.19,-1.95 0.73,-18.28 -1.48,-80.54 -0.49,-91.79 0.47,-5.33 7.83,-12.59 16.63,-12.59 z"
               style="fill:none;stroke:#000000;stroke-width:5;stroke-linecap:round;stroke-linejoin:round;stroke-miterlimit:10;stroke-dasharray:none;stroke-opacity:1"
               id="path246" />
            <path
               d="m 2495.23,6110.92 c -5.88,47.14 -10.8,77.96 -10.83,82.3 0,12.48 -15.56,17.27 -20.33,18.44 -5.33,1.35 -10.78,-1.95 -12.09,-7.32 -1.33,-5.36 1.96,-10.77 7.33,-12.09 1.73,-0.44 3.83,-1.24 5.17,-1.94 0.74,-18.28 -0.75,-80.5 -0.49,-91.79 0.41,-16.77 32.49,2.4 31.24,12.4"
               style="fill:#ffffff;fill-opacity:1;fill-rule:nonzero;stroke:none"
               id="path248" />
            <path
               d="m 2495.23,6110.92 c -5.88,47.14 -10.8,77.96 -10.83,82.3 0,12.48 -15.56,17.27 -20.33,18.44 -5.33,1.35 -10.78,-1.95 -12.09,-7.32 -1.33,-5.36 1.96,-10.77 7.33,-12.09 1.73,-0.44 3.83,-1.24 5.17,-1.94 0.74,-18.28 -0.75,-80.5 -0.49,-91.79 0.41,-16.77 32.49,2.4 31.24,12.4 z"
               style="fill:none;stroke:#000000;stroke-width:5;stroke-linecap:round;stroke-linejoin:round;stroke-miterlimit:10;stroke-dasharray:none;stroke-opacity:1"
               id="path250" />
            <path
               d="m 2283.49,6310.76 c -1.33,5.37 -6.76,8.67 -12.11,7.32 -4.76,-1.17 -20.31,-5.97 -20.31,-18.45 0,-0.44 0.06,-1.6 0.15,-3.12 -0.45,-0.36 -0.66,-0.68 -0.33,-0.88 -0.94,-18.27 -10.79,-79.97 -11.54,-91.24 -1.13,-16.73 32.57,-0.56 32.23,9.52 -1.59,47.48 -0.98,78.5 -0.61,82.81 1.37,0.71 3.46,1.51 5.2,1.95 5.35,1.31 8.63,6.72 7.32,12.09"
               style="fill:#ffffff;fill-opacity:1;fill-rule:nonzero;stroke:none"
               id="path252" />
            <path
               d="m 2283.49,6310.76 c -1.33,5.37 -6.76,8.67 -12.11,7.32 -4.76,-1.17 -20.31,-5.97 -20.31,-18.45 0,-0.44 0.06,-1.6 0.15,-3.12 -0.45,-0.36 -0.66,-0.68 -0.33,-0.88 -0.94,-18.27 -10.79,-79.97 -11.54,-91.24 -1.13,-16.73 32.57,-0.56 32.23,9.52 -1.59,47.48 -0.98,78.5 -0.61,82.81 1.37,0.71 3.46,1.51 5.2,1.95 5.35,1.31 8.63,6.72 7.32,12.09 z"
               style="fill:none;stroke:#000000;stroke-width:5;stroke-linecap:round;stroke-linejoin:round;stroke-miterlimit:10;stroke-dasharray:none;stroke-opacity:1"
               id="path254" />
            <path
               d="m 2287.81,6196.44 c 39.26,-28.43 48.7,-51.03 39.95,-107.28"
               style="fill:none;stroke:#000000;stroke-width:10;stroke-linecap:round;stroke-linejoin:round;stroke-miterlimit:4;stroke-dasharray:none;stroke-opacity:1"
               id="path264" />
            <path
               d="m 2312.12,6133.47 6.87,1.35 8.88,-44.98 22.11,40.16 6.13,-3.37 -31.39,-57.01 -12.6,63.85"
               style="fill:#000000;fill-opacity:1;fill-rule:nonzero;stroke:none"
               id="path266" />
            <path
               d="m 2462.34,6098.74 c -52.5,6.25 -93.75,-3.75 -125.62,-75"
               style="fill:none;stroke:#000000;stroke-width:10;stroke-linecap:round;stroke-linejoin:round;stroke-miterlimit:4;stroke-dasharray:none;stroke-opacity:1"
               id="path268" />
            <path
               d="m 2333.29,6070.6 6.99,-0.5 -3.28,-45.73 31.91,32.92 5.03,-4.86 -45.3,-46.74 4.65,64.91"
               style="fill:#000000;fill-opacity:1;fill-rule:nonzero;stroke:none"
               id="path270" />
            <path
               d="m 2487.83,6032.96 c -20.72,34.66 -62.34,50.28 -92.95,34.88 -30.59,-15.4 -38.61,-55.97 -17.88,-90.62 20.72,-34.67 62.34,-50.29 92.94,-34.9 30.61,15.39 38.61,55.96 17.89,90.64"
               style="fill:#ffffff;fill-opacity:1;fill-rule:nonzero;stroke:none"
               id="path364" />
            <path
               d="m 2487.83,6032.96 c -20.72,34.66 -62.34,50.28 -92.95,34.88 -30.59,-15.4 -38.61,-55.97 -17.88,-90.62 20.72,-34.67 62.34,-50.29 92.94,-34.9 30.61,15.39 38.61,55.96 17.89,90.64 z"
               style="fill:none;stroke:#000000;stroke-width:5;stroke-linecap:round;stroke-linejoin:round;stroke-miterlimit:10;stroke-dasharray:none;stroke-opacity:1"
               id="path366" />
            <path
               d="m 2418.03,5947.14 -33.44,-21.72 5.61,48.72"
               style="fill:#ffffff;fill-opacity:1;fill-rule:nonzero;stroke:none"
               id="path368" />
            <path
               d="m 2418.03,5947.14 -33.44,-21.72 5.61,48.72"
               style="fill:none;stroke:#000000;stroke-width:5;stroke-linecap:round;stroke-linejoin:round;stroke-miterlimit:10;stroke-dasharray:none;stroke-opacity:1"
               id="path370" />
            <path
               d="m 2459.2,5943.35 32.56,-27.75 -3.77,49.53"
               style="fill:#ffffff;fill-opacity:1;fill-rule:nonzero;stroke:none"
               id="path372" />
            <path
               d="m 2459.2,5943.35 32.56,-27.75 -3.77,49.53"
               style="fill:none;stroke:#000000;stroke-width:5;stroke-linecap:round;stroke-linejoin:round;stroke-miterlimit:10;stroke-dasharray:none;stroke-opacity:1"
               id="path374" />
            <path
               d="m 2411.78,5992.28 c 0.09,5.9 -3.85,11.05 -8.82,11.51 -4.98,0.46 -9.1,-3.96 -9.22,-9.85 -0.11,-5.88 3.85,-11.03 8.81,-11.49 4.98,-0.45 9.1,3.94 9.23,9.83"
               style="fill:#000000;fill-opacity:1;fill-rule:nonzero;stroke:none"
               id="path376" />
            <path
               d="m 2411.78,5992.28 c 0.09,5.9 -3.85,11.05 -8.82,11.51 -4.98,0.46 -9.1,-3.96 -9.22,-9.85 -0.11,-5.88 3.85,-11.03 8.81,-11.49 4.98,-0.45 9.1,3.94 9.23,9.83 z"
               style="fill:none;stroke:#000000;stroke-width:5;stroke-linecap:round;stroke-linejoin:round;stroke-miterlimit:10;stroke-dasharray:none;stroke-opacity:1"
               id="path378" />
            <path
               d="m 2460.03,5987.84 c 0.1,5.88 -3.85,11.05 -8.83,11.5 -4.95,0.47 -9.09,-3.95 -9.2,-9.84 -0.11,-5.9 3.84,-11.03 8.82,-11.49 4.97,-0.46 9.09,3.95 9.21,9.83"
               style="fill:#000000;fill-opacity:1;fill-rule:nonzero;stroke:none"
               id="path380" />
            <path
               d="m 2460.03,5987.84 c 0.1,5.88 -3.85,11.05 -8.83,11.5 -4.95,0.47 -9.09,-3.95 -9.2,-9.84 -0.11,-5.9 3.84,-11.03 8.82,-11.49 4.97,-0.46 9.09,3.95 9.21,9.83 z"
               style="fill:none;stroke:#000000;stroke-width:5;stroke-linecap:round;stroke-linejoin:round;stroke-miterlimit:10;stroke-dasharray:none;stroke-opacity:1"
               id="path382" />
            <path
               d="m 2407.34,6044.37 c 0,0 7.5,-8.57 20.88,-8.57 11.62,0 21,4.19 21,4.19"
               style="fill:#ffffff;fill-opacity:1;fill-rule:nonzero;stroke:none"
               id="path384" />
            <path
               d="m 2407.34,6044.37 c 0,0 7.5,-8.57 20.88,-8.57 11.62,0 21,4.19 21,4.19 m -50.58,-21.03 c 0,0 -28.37,4.24 -53.91,21.9 m 54.05,-14.76 c 0,0 -27.93,8.07 -51.76,29.03 m 51.92,-21.31 c 0,0 -27.01,12.32 -48.48,36.66 m 107.56,-56.98 c 0,0 28.42,-1 54.55,11.9 m -54.42,-4.76 c 0,0 28.15,2.9 52.66,19.42 m -52.52,-11.7 c 0,0 27.38,7.3 49.68,27.63"
               style="fill:none;stroke:#000000;stroke-width:5;stroke-linecap:round;stroke-linejoin:round;stroke-miterlimit:10;stroke-dasharray:none;stroke-opacity:1"
               id="path386" />
          </g>
          <g
             id="g457"
             inkscape:label="g457">
            <path
               d="m 1820.8,6251.59 -0.11,-0.15 c -25.23,16.39 -62.92,9.89 -88.87,-16.95 -28.79,-29.77 -32.17,-73.22 -7.53,-97.04 3.14,-3.04 6.59,-5.6 10.28,-7.71 l -0.02,-0.02 90.61,-58.33 86.25,121.87 -90.61,58.33"
               style="fill:#ffffff;fill-opacity:1;fill-rule:nonzero;stroke:none"
               id="path154" />
            <path
               d="m 1820.8,6251.59 -0.11,-0.15 c -25.23,16.39 -62.92,9.89 -88.87,-16.95 -28.79,-29.77 -32.17,-73.22 -7.53,-97.04 3.14,-3.04 6.59,-5.6 10.28,-7.71 l -0.02,-0.02 90.61,-58.33 86.25,121.87 z"
               style="fill:none;stroke:#000000;stroke-width:5;stroke-linecap:round;stroke-linejoin:round;stroke-miterlimit:10;stroke-dasharray:none;stroke-opacity:1"
               id="path156" />
            <path
               d="m 1911.63,6089.92 c -28.79,-29.78 -72.09,-34.61 -96.72,-10.8 -24.64,23.82 -21.27,67.27 7.53,97.04 28.8,29.79 72.1,34.61 96.73,10.8 24.63,-23.82 21.26,-67.25 -7.54,-97.04"
               style="fill:#ffffff;fill-opacity:1;fill-rule:nonzero;stroke:none"
               id="path166" />
            <path
               d="m 1911.63,6089.92 c -28.79,-29.78 -72.09,-34.61 -96.72,-10.8 -24.64,23.82 -21.27,67.27 7.53,97.04 28.8,29.79 72.1,34.61 96.73,10.8 24.63,-23.82 21.26,-67.25 -7.54,-97.04 z"
               style="fill:none;stroke:#000000;stroke-width:5;stroke-linecap:round;stroke-linejoin:round;stroke-miterlimit:10;stroke-dasharray:none;stroke-opacity:1"
               id="path168" />
            <path
               d="m 1743.94,6187.22 c -0.3,0 -0.59,0 -0.9,0.01 -9.18,0.29 -16.25,8.12 -15.76,13.64 4.16,47.32 12.87,89.31 12.89,93.64 0,12.48 15.56,17.28 20.32,18.45 5.35,1.35 10.79,-1.95 12.1,-7.33 1.32,-5.36 -1.96,-10.77 -7.32,-12.09 -1.73,-0.44 -3.83,-1.24 -5.19,-1.94 -0.72,-18.28 1.48,-80.54 0.49,-91.79 -0.47,-5.33 -7.83,-12.59 -16.63,-12.59"
               style="fill:#ffffff;fill-opacity:1;fill-rule:nonzero;stroke:none"
               id="path170" />
            <path
               d="m 1743.94,6187.22 c -0.3,0 -0.59,0 -0.9,0.01 -9.18,0.29 -16.25,8.12 -15.76,13.64 4.16,47.32 12.87,89.31 12.89,93.64 0,12.48 15.56,17.28 20.32,18.45 5.35,1.35 10.79,-1.95 12.1,-7.33 1.32,-5.36 -1.96,-10.77 -7.32,-12.09 -1.73,-0.44 -3.83,-1.24 -5.19,-1.94 -0.72,-18.28 1.48,-80.54 0.49,-91.79 -0.47,-5.33 -7.83,-12.59 -16.63,-12.59 z"
               style="fill:none;stroke:#000000;stroke-width:5;stroke-linecap:round;stroke-linejoin:round;stroke-miterlimit:10;stroke-dasharray:none;stroke-opacity:1"
               id="path172" />
            <path
               d="m 1801.63,6247.84 c 5.89,47.14 10.81,77.96 10.83,82.3 0,12.48 15.56,17.27 20.32,18.44 5.35,1.35 10.79,-1.95 12.1,-7.32 1.32,-5.36 -1.96,-10.77 -7.32,-12.09 -1.73,-0.44 -3.83,-1.24 -5.19,-1.94 -0.72,-18.29 0.76,-80.5 0.49,-91.79 -0.4,-16.77 -32.48,2.4 -31.23,12.4"
               style="fill:#ffffff;fill-opacity:1;fill-rule:nonzero;stroke:none"
               id="path174" />
            <path
               d="m 1801.63,6247.84 c 5.89,47.14 10.81,77.96 10.83,82.3 0,12.48 15.56,17.27 20.32,18.44 5.35,1.35 10.79,-1.95 12.1,-7.32 1.32,-5.36 -1.96,-10.77 -7.32,-12.09 -1.73,-0.44 -3.83,-1.24 -5.19,-1.94 -0.72,-18.29 0.76,-80.5 0.49,-91.79 -0.4,-16.77 -32.48,2.4 -31.23,12.4 z"
               style="fill:none;stroke:#000000;stroke-width:5;stroke-linecap:round;stroke-linejoin:round;stroke-miterlimit:10;stroke-dasharray:none;stroke-opacity:1"
               id="path176" />
            <path
               d="m 1867.03,6133.05 78.35,-51.25"
               style="fill:none;stroke:#000000;stroke-width:7.5;stroke-linecap:round;stroke-linejoin:round;stroke-miterlimit:10;stroke-dasharray:none;stroke-opacity:1"
               id="path178" />
            <path
               d="m 2029.93,6116.6 -0.11,-0.15 c -25.22,16.39 -62.91,9.89 -88.86,-16.95 -28.79,-29.77 -32.17,-73.22 -7.53,-97.04 3.14,-3.04 6.59,-5.6 10.27,-7.7 l -0.02,-0.03 90.61,-58.33 86.25,121.87 -90.61,58.33"
               style="fill:#ffffff;fill-opacity:1;fill-rule:nonzero;stroke:none"
               id="path180" />
            <path
               d="m 2029.93,6116.6 -0.11,-0.15 c -25.22,16.39 -62.91,9.89 -88.86,-16.95 -28.79,-29.77 -32.17,-73.22 -7.53,-97.04 3.14,-3.04 6.59,-5.6 10.27,-7.7 l -0.02,-0.03 90.61,-58.33 86.25,121.87 z"
               style="fill:none;stroke:#000000;stroke-width:5;stroke-linecap:round;stroke-linejoin:round;stroke-miterlimit:10;stroke-dasharray:none;stroke-opacity:1"
               id="path182" />
            <path
               d="m 2120.77,5954.93 c -28.79,-29.78 -72.1,-34.61 -96.73,-10.8 -24.64,23.82 -21.27,67.27 7.53,97.04 28.8,29.79 72.11,34.61 96.74,10.8 24.63,-23.82 21.25,-67.25 -7.54,-97.04"
               style="fill:#ffffff;fill-opacity:1;fill-rule:nonzero;stroke:none"
               id="path184" />
            <path
               d="m 2120.77,5954.93 c -28.79,-29.78 -72.1,-34.61 -96.73,-10.8 -24.64,23.82 -21.27,67.27 7.53,97.04 28.8,29.79 72.11,34.61 96.74,10.8 24.63,-23.82 21.25,-67.25 -7.54,-97.04 z"
               style="fill:none;stroke:#000000;stroke-width:5;stroke-linecap:round;stroke-linejoin:round;stroke-miterlimit:10;stroke-dasharray:none;stroke-opacity:1"
               id="path186" />
            <path
               d="m 1993.91,6019.31 c -0.3,0 -0.59,0 -0.9,0.01 -9.18,0.29 -16.25,8.12 -15.76,13.64 4.16,47.32 12.87,89.3 12.89,93.64 0,12.48 15.56,17.28 20.33,18.45 5.34,1.35 10.78,-1.96 12.09,-7.33 1.32,-5.36 -1.96,-10.77 -7.32,-12.09 -1.73,-0.44 -3.83,-1.24 -5.19,-1.94 -0.72,-18.28 1.48,-80.54 0.49,-91.79 -0.47,-5.33 -7.83,-12.59 -16.63,-12.59"
               style="fill:#ffffff;fill-opacity:1;fill-rule:nonzero;stroke:none"
               id="path188" />
            <path
               d="m 1993.91,6019.31 c -0.3,0 -0.59,0 -0.9,0.01 -9.18,0.29 -16.25,8.12 -15.76,13.64 4.16,47.32 12.87,89.3 12.89,93.64 0,12.48 15.56,17.28 20.33,18.45 5.34,1.35 10.78,-1.96 12.09,-7.33 1.32,-5.36 -1.96,-10.77 -7.32,-12.09 -1.73,-0.44 -3.83,-1.24 -5.19,-1.94 -0.72,-18.28 1.48,-80.54 0.49,-91.79 -0.47,-5.33 -7.83,-12.59 -16.63,-12.59 z"
               style="fill:none;stroke:#000000;stroke-width:5;stroke-linecap:round;stroke-linejoin:round;stroke-miterlimit:10;stroke-dasharray:none;stroke-opacity:1"
               id="path190" />
            <path
               d="m 2042.85,6087.43 c 5.89,47.14 10.81,77.96 10.83,82.3 0,12.48 15.56,17.27 20.32,18.44 5.35,1.35 10.79,-1.95 12.1,-7.32 1.33,-5.36 -1.95,-10.77 -7.32,-12.09 -1.73,-0.44 -3.83,-1.24 -5.19,-1.94 -0.72,-18.29 0.76,-80.5 0.49,-91.79 -0.4,-16.77 -32.48,2.4 -31.23,12.4"
               style="fill:#ffffff;fill-opacity:1;fill-rule:nonzero;stroke:none"
               id="path192" />
            <path
               d="m 2042.85,6087.43 c 5.89,47.14 10.81,77.96 10.83,82.3 0,12.48 15.56,17.27 20.32,18.44 5.35,1.35 10.79,-1.95 12.1,-7.32 1.33,-5.36 -1.95,-10.77 -7.32,-12.09 -1.73,-0.44 -3.83,-1.24 -5.19,-1.94 -0.72,-18.29 0.76,-80.5 0.49,-91.79 -0.4,-16.77 -32.48,2.4 -31.23,12.4 z"
               style="fill:none;stroke:#000000;stroke-width:5;stroke-linecap:round;stroke-linejoin:round;stroke-miterlimit:10;stroke-dasharray:none;stroke-opacity:1"
               id="path194" />
            <path
               d="m 2036.65,6004 c 20.72,34.66 62.34,50.29 92.95,34.89 30.59,-15.4 38.61,-55.97 17.88,-90.63 -20.73,-34.67 -62.34,-50.28 -92.94,-34.89 -30.61,15.39 -38.61,55.95 -17.89,90.63"
               style="display:inline;fill:#ffffff;fill-opacity:1;fill-rule:nonzero;stroke:none"
               id="path196" />
            <path
               d="m 2036.65,6004 c 20.72,34.66 62.34,50.29 92.95,34.89 30.59,-15.4 38.61,-55.97 17.88,-90.63 -20.73,-34.67 -62.34,-50.28 -92.94,-34.89 -30.61,15.39 -38.61,55.95 -17.89,90.63 z"
               style="display:inline;fill:none;stroke:#000000;stroke-width:5;stroke-linecap:round;stroke-linejoin:round;stroke-miterlimit:10;stroke-dasharray:none;stroke-opacity:1"
               id="path198" />
            <path
               d="m 2106.45,5918.19 33.44,-21.73 -5.61,48.72"
               style="fill:#ffffff;fill-opacity:1;fill-rule:nonzero;stroke:none"
               id="path200" />
            <path
               d="m 2106.45,5918.19 33.44,-21.73 -5.61,48.72"
               style="fill:none;stroke:#000000;stroke-width:5;stroke-linecap:round;stroke-linejoin:round;stroke-miterlimit:10;stroke-dasharray:none;stroke-opacity:1"
               id="path202" />
            <path
               d="m 2065.28,5914.39 -32.56,-27.75 3.77,49.53"
               style="fill:#ffffff;fill-opacity:1;fill-rule:nonzero;stroke:none"
               id="path204" />
            <path
               d="m 2065.28,5914.39 -32.56,-27.75 3.77,49.53"
               style="fill:none;stroke:#000000;stroke-width:5;stroke-linecap:round;stroke-linejoin:round;stroke-miterlimit:10;stroke-dasharray:none;stroke-opacity:1"
               id="path214" />
            <path
               d="m 2116.4,5963.33 c -0.06,5.9 2.27,11.05 5.2,11.5 2.95,0.46 5.37,-3.95 5.44,-9.84 0.07,-5.89 -2.27,-11.03 -5.2,-11.5 -2.94,-0.45 -5.37,3.95 -5.44,9.84"
               style="fill:#000000;fill-opacity:1;fill-rule:nonzero;stroke:none"
               id="path224" />
            <path
               d="m 2116.4,5963.33 c -0.06,5.9 2.27,11.05 5.2,11.5 2.95,0.46 5.37,-3.95 5.44,-9.84 0.07,-5.89 -2.27,-11.03 -5.2,-11.5 -2.94,-0.45 -5.37,3.95 -5.44,9.84 z"
               style="fill:none;stroke:#000000;stroke-width:5;stroke-linecap:round;stroke-linejoin:round;stroke-miterlimit:10;stroke-dasharray:none;stroke-opacity:1"
               id="path226" />
            <path
               d="m 2068.14,5958.88 c -0.06,5.89 2.27,11.05 5.21,11.51 2.93,0.46 5.37,-3.96 5.43,-9.85 0.08,-5.89 -2.26,-11.02 -5.21,-11.48 -2.93,-0.47 -5.36,3.94 -5.43,9.82"
               style="fill:#000000;fill-opacity:1;fill-rule:nonzero;stroke:none"
               id="path228" />
            <path
               d="m 2068.14,5958.88 c -0.06,5.89 2.27,11.05 5.21,11.51 2.93,0.46 5.37,-3.96 5.43,-9.85 0.08,-5.89 -2.26,-11.02 -5.21,-11.48 -2.93,-0.47 -5.36,3.94 -5.43,9.82 z"
               style="fill:none;stroke:#000000;stroke-width:5;stroke-linecap:round;stroke-linejoin:round;stroke-miterlimit:10;stroke-dasharray:none;stroke-opacity:1"
               id="path230" />
            <path
               d="m 2124.95,6022.29 c 0,0 -7.03,-19.16 -26.25,-21.56 -17.5,-2.19 -30.31,12.5 -30.31,12.5"
               style="fill:#ffffff;fill-opacity:1;fill-rule:nonzero;stroke:none"
               id="path232" />
            <path
               d="m 2124.95,6022.29 c 0,0 -7.03,-19.16 -26.25,-21.56 -17.5,-2.19 -30.31,12.5 -30.31,12.5 m 57.45,-23.22 c 0,0 28.37,4.23 53.91,21.89 m -54.05,-14.76 c 0,0 27.93,8.07 51.76,29.04 m -51.92,-21.32 c 0,0 27.01,12.33 48.48,36.67 m -107.56,-56.98 c 0,0 -28.42,-1 -54.55,11.89 m 54.41,-4.76 c 0,0 -28.14,2.91 -52.65,19.42 m 52.52,-11.7 c 0,0 -27.39,7.31 -49.68,27.63"
               style="fill:none;stroke:#000000;stroke-width:5;stroke-linecap:round;stroke-linejoin:round;stroke-miterlimit:10;stroke-dasharray:none;stroke-opacity:1"
               id="path234" />
            <path
               d="m 1951.06,5949.24 c -20.57,-35.51 -73.4,-57.7 -122.5,-55.84"
               style="fill:none;stroke:#000000;stroke-width:10;stroke-linecap:round;stroke-linejoin:round;stroke-miterlimit:4;stroke-dasharray:none;stroke-opacity:1"
               id="path320" />
            <path
               d="m 1870.74,5914.08 2.15,-6.67 -43.65,-14.04 42.47,-17.3 -2.65,-6.48 -60.27,24.55 61.95,19.94"
               style="fill:#000000;fill-opacity:1;fill-rule:nonzero;stroke:none"
               id="path322" />
            <path
               d="m 1750.23,6098.41 c -31.52,-26.27 -52.52,-72.61 -50.01,-121.67"
               style="fill:none;stroke:#000000;stroke-width:10;stroke-linecap:round;stroke-linejoin:round;stroke-miterlimit:4;stroke-dasharray:none;stroke-opacity:1"
               id="path324" />
            <path
               d="m 1675.87,6016.92 6.45,2.73 17.87,-42.23 13.45,43.83 6.7,-2.05 -19.11,-62.22 -25.36,59.94"
               style="display:inline;fill:#000000;fill-opacity:1;fill-rule:nonzero;stroke:none"
               id="path326" />
          </g>
        </g>
      </g>
    </g>
  </g>
</svg>
